<?xml version="1.0" standalone="no"?>
<svg version="1.0" xmlns="http://www.w3.org/2000/svg"
 width="365" height="400" viewBox="0 0 7300 8000"
 preserveAspectRatio="xMidYMid meet">
<g transform="translate(0,8000) scale(1,-1)"
fill="#5F7EB2" stroke="none">
<path d="M3500 7439 c-161 -6 -270 -20 -475 -60 -157 -31 -332 -86 -550 -171
-92 -37 -325 -157 -438 -227 -103 -64 -283 -194 -384 -278 -183 -152 -425
-415 -549 -598 -66 -96 -112 -169 -128 -200 -9 -16 -25 -45 -36 -62 -21 -36
-134 -259 -155 -308 -7 -16 -20 -48 -30 -69 -85 -201 -165 -521 -202 -811 -25
-196 -25 -1197 0 -1436 27 -264 92 -560 162 -739 91 -234 145 -354 209 -465
20 -33 43 -73 52 -90 100 -176 283 -414 453 -588 217 -223 406 -368 706 -545
337 -198 734 -330 1155 -382 148 -19 234 -20 1838 -20 926 0 1688 2 1693 5 5
4 9 791 9 2033 0 2137 -1 2194 -46 2430 -30 163 -94 402 -136 512 -93 244
-205 464 -333 655 -243 362 -529 654 -860 875 -44 30 -93 62 -108 73 -82 55
-282 160 -392 207 -27 11 -58 25 -67 30 -69 38 -419 145 -568 173 -296 57
-478 69 -820 56z m510 -1488 c205 -38 311 -73 495 -161 442 -212 770 -582 954
-1075 18 -49 41 -142 69 -275 l25 -125 4 -1015 c3 -691 8 -1019 15 -1027 8
-10 64 -13 227 -13 155 0 220 -3 229 -12 17 -17 17 -569 0 -586 -9 -9 -142
-12 -536 -12 -491 0 -524 1 -528 18 -2 9 -6 586 -7 1282 -3 1244 -3 1267 -24
1375 -12 61 -33 145 -47 188 -28 82 -97 231 -122 258 -8 8 -14 19 -14 22 0 20
-120 164 -194 234 -332 310 -778 421 -1211 301 -266 -73 -506 -238 -676 -463
-69 -91 -109 -161 -170 -300 -36 -84 -66 -217 -79 -354 -5 -53 -12 -86 -21
-92 -8 -5 -138 -9 -290 -9 -234 0 -278 2 -289 15 -26 32 9 318 60 495 51 175
134 356 231 505 167 257 420 490 682 629 204 109 453 187 697 220 86 11 417
-3 520 -23z m-188 -1927 c126 -32 225 -105 303 -222 97 -147 101 -380 10 -538
-61 -105 -179 -198 -304 -239 -74 -24 -219 -24 -292 0 -147 49 -263 148 -324
276 -81 171 -59 385 55 536 37 49 125 124 180 153 88 48 257 63 372 34z"/>
</g>
</svg>
